<svg xmlns="http://www.w3.org/2000/svg" xmlns:xlink="http://www.w3.org/1999/xlink" width="36" height="36" preserveAspectRatio="xMidYMid meet" viewBox="0 0 36 36" style="-ms-transform: rotate(360deg); -webkit-transform: rotate(360deg); transform: rotate(360deg);"><path class="clr-i-solid clr-i-solid-path-1" d="M32.25 6h-4v3a2.2 2.2 0 1 1-4.4 0V6H12.2v3a2.2 2.2 0 0 1-4.4 0V6h-4A1.78 1.78 0 0 0 2 7.81v22.38A1.78 1.78 0 0 0 3.75 32h28.5A1.78 1.78 0 0 0 34 30.19V7.81A1.78 1.78 0 0 0 32.25 6zM10 26H8v-2h2zm0-5H8v-2h2zm0-5H8v-2h2zm6 10h-2v-2h2zm0-5h-2v-2h2zm0-5h-2v-2h2zm6 10h-2v-2h2zm0-5h-2v-2h2zm0-5h-2v-2h2zm6 10h-2v-2h2zm0-5h-2v-2h2zm0-5h-2v-2h2z" fill="#6fa8f8"/><path class="clr-i-solid clr-i-solid-path-2" d="M10 10a1 1 0 0 0 1-1V3a1 1 0 0 0-2 0v6a1 1 0 0 0 1 1z" fill="#6fa8f8"/><path class="clr-i-solid clr-i-solid-path-3" d="M26 10a1 1 0 0 0 1-1V3a1 1 0 0 0-2 0v6a1 1 0 0 0 1 1z" fill="#6fa8f8"/><rect x="0" y="0" width="36" height="36" fill="rgba(0, 0, 0, 0)" /></svg>