<svg xmlns="http://www.w3.org/2000/svg" xmlns:xlink="http://www.w3.org/1999/xlink" width="16" height="16" preserveAspectRatio="xMidYMid meet" viewBox="0 0 16 16" style="-ms-transform: rotate(360deg); -webkit-transform: rotate(360deg); transform: rotate(360deg);"><g fill="#6fa8f8"><path fill-rule="evenodd" d="M5.354 5.119L7.538.792A.516.516 0 0 1 8 .5c.183 0 .366.097.465.292l2.184 4.327l4.898.696A.537.537 0 0 1 16 6.32a.55.55 0 0 1-.17.445l-3.523 3.356l.83 4.73c.078.443-.36.79-.746.592L8 13.187l-4.389 2.256a.519.519 0 0 1-.146.05c-.341.06-.668-.254-.6-.642l.83-4.73L.173 6.765a.55.55 0 0 1-.171-.403a.59.59 0 0 1 .084-.302a.513.513 0 0 1 .37-.245l4.898-.696zM8 12.027c.08 0 .16.018.232.056l3.686 1.894l-.694-3.957a.564.564 0 0 1 .163-.505l2.906-2.77l-4.052-.576a.525.525 0 0 1-.393-.288L8.002 2.223L8 2.226v9.8z"/></g><rect x="0" y="0" width="16" height="16" fill="rgba(0, 0, 0, 0)" /></svg>