<svg xmlns="http://www.w3.org/2000/svg" xmlns:xlink="http://www.w3.org/1999/xlink" width="24" height="24" preserveAspectRatio="xMidYMid meet" viewBox="0 0 24 24" style="-ms-transform: rotate(360deg); -webkit-transform: rotate(360deg); transform: rotate(360deg);"><path d="M19.938 13A8.004 8.004 0 0 1 13 19.938V22h-2v-2.062A8.004 8.004 0 0 1 4.062 13H2v-2h2.062A8.004 8.004 0 0 1 11 4.062V2h2v2.062A8.004 8.004 0 0 1 19.938 11H22v2h-2.062zM12 18a6 6 0 1 0 0-12a6 6 0 0 0 0 12zm0-3a3 3 0 1 0 0-6a3 3 0 0 0 0 6z" fill="#aa69e5" fill-rule="nonzero"/><rect x="0" y="0" width="24" height="24" fill="rgba(0, 0, 0, 0)" /></svg>